<?xml version="1.0" encoding="iso-8859-1"?>
<!-- Generator: Adobe Illustrator 19.0.0, SVG Export Plug-In . SVG Version: 6.00 Build 0)  -->
<svg version="1.1" id="Layer_1" xmlns="http://www.w3.org/2000/svg" xmlns:xlink="http://www.w3.org/1999/xlink" x="0px" y="0px"
	 viewBox="0 0 224.826 224.826" style="enable-background:new 0 0 224.826 224.826;" xml:space="preserve">
<g>
	<path style="fill:#1F80AA;" d="M220.413,45.504c2.979,0.779,5.546,4.171,3.896,7.884c-18.013,39.601-34.697,85.298-59.631,121.141
		c1.054,3.254-0.55,7.7-4.996,7.609c-25.942-0.367-51.931-0.825-77.919-0.367c-25.667,0.413-52.068,4.309-77.644,2.292
		c-1.329-0.092-2.2-0.963-2.567-1.971c-1.421-1.421-2.108-3.529-1.008-5.821c13.384-28.005,26.767-55.964,40.151-83.969
		c4.263-8.938,12.834-38.914,23.559-46.385c0.321-0.963,1.008-1.788,2.063-1.971c49.226-10.129,100.653,3.896,150.246-0.321
		C218.305,43.488,219.542,44.313,220.413,45.504z"/>
</g>
<g>
</g>
<g>
</g>
<g>
</g>
<g>
</g>
<g>
</g>
<g>
</g>
<g>
</g>
<g>
</g>
<g>
</g>
<g>
</g>
<g>
</g>
<g>
</g>
<g>
</g>
<g>
</g>
<g>
</g>
</svg>
